<svg width="118" height="16" viewBox="0 0 118 16" fill="none" xmlns="http://www.w3.org/2000/svg">
<path d="M0 4.58312H1.40585V6.50639C1.89806 5.7971 2.40376 5.27877 2.92295 4.95141C3.63767 4.51492 4.38947 4.29668 5.17837 4.29668C5.71104 4.29668 6.21674 4.40239 6.69547 4.61381C7.1742 4.82523 7.56527 5.10827 7.86869 5.46292C8.17211 5.81074 8.43507 6.31202 8.65758 6.96675C9.12957 6.09378 9.71955 5.43223 10.4275 4.9821C11.1355 4.52515 11.8974 4.29668 12.7133 4.29668C13.4752 4.29668 14.1461 4.49105 14.726 4.8798C15.3126 5.26854 15.7475 5.81074 16.0307 6.50639C16.3139 7.20205 16.4555 8.24552 16.4555 9.63683V15.7136H15.0092V9.63683C15.0092 8.44331 14.9249 7.62489 14.7563 7.18159C14.5878 6.73146 14.2978 6.36999 13.8865 6.09719C13.482 5.82438 12.9965 5.68798 12.4301 5.68798C11.7424 5.68798 11.1119 5.89258 10.5388 6.30179C9.9724 6.711 9.55773 7.25661 9.29476 7.93862C9.0318 8.62063 8.90032 9.75959 8.90032 11.3555V15.7136H7.49447V10.0153C7.49447 8.67178 7.41019 7.7613 7.24162 7.28389C7.0798 6.79966 6.79323 6.41432 6.38193 6.12788C5.97063 5.83461 5.48179 5.68798 4.9154 5.68798C4.26136 5.68798 3.64778 5.88917 3.07466 6.29156C2.50827 6.68713 2.08685 7.22251 1.81041 7.8977C1.5407 8.57289 1.40585 9.60614 1.40585 10.9974V15.7136H0V4.58312Z" fill="black"/>
<path d="M28.7136 12.0205L29.9071 12.6547C29.516 13.4322 29.0643 14.0597 28.5518 14.5371C28.0394 15.0145 27.4629 15.3794 26.8223 15.6317C26.1818 15.8772 25.4569 16 24.6478 16C22.8543 16 21.4518 15.4066 20.4404 14.2199C19.429 13.0264 18.9233 11.6795 18.9233 10.179C18.9233 8.76726 19.3514 7.50895 20.2078 6.40409C21.2933 4.99915 22.7464 4.29668 24.5669 4.29668C26.4414 4.29668 27.9382 5.0162 29.0575 6.45524C29.8531 7.47144 30.2577 8.73998 30.2712 10.2609H20.3797C20.4067 11.5567 20.8146 12.6206 21.6035 13.4527C22.3924 14.2779 23.3667 14.6905 24.5264 14.6905C25.0861 14.6905 25.6289 14.5916 26.1548 14.3939C26.6875 14.1961 27.1392 13.9335 27.5101 13.6061C27.8809 13.2788 28.2821 12.7502 28.7136 12.0205ZM28.7136 9.02302C28.5248 8.25916 28.2484 7.64876 27.8843 7.19182C27.5269 6.73487 27.0516 6.36658 26.4582 6.08696C25.8649 5.80733 25.2412 5.66752 24.5871 5.66752C23.5083 5.66752 22.5812 6.01876 21.8058 6.72123C21.2394 7.23274 20.8112 8 20.5213 9.02302H28.7136Z" fill="black"/>
<path d="M43.9049 0.286445V15.7136H42.5091V13.8005C41.9158 14.5303 41.2482 15.0793 40.5066 15.4476C39.7716 15.8159 38.9659 16 38.0893 16C36.5318 16 35.2001 15.4305 34.0943 14.2916C32.9952 13.1458 32.4457 11.7545 32.4457 10.1176C32.4457 8.51492 33.002 7.14407 34.1145 6.00512C35.2271 4.86616 36.5655 4.29668 38.1298 4.29668C39.0333 4.29668 39.8491 4.49105 40.5774 4.8798C41.3123 5.26854 41.9562 5.85166 42.5091 6.62916V0.286445H43.9049ZM38.241 5.67775C37.4521 5.67775 36.7239 5.87553 36.0564 6.2711C35.3889 6.65985 34.8562 7.20887 34.4584 7.91816C34.0673 8.62745 33.8718 9.37766 33.8718 10.1688C33.8718 10.9531 34.0707 11.7033 34.4685 12.4194C34.8663 13.1356 35.399 13.6948 36.0665 14.0972C36.7408 14.4928 37.4622 14.6905 38.2309 14.6905C39.0063 14.6905 39.7413 14.4928 40.4358 14.0972C41.1303 13.7016 41.6629 13.1662 42.0338 12.491C42.4114 11.8159 42.6002 11.0554 42.6002 10.2097C42.6002 8.92072 42.1787 7.84314 41.3359 6.97698C40.4998 6.11083 39.4682 5.67775 38.241 5.67775Z" fill="black"/>
<path d="M47.6167 0C47.9403 0 48.2168 0.115942 48.446 0.347826C48.6753 0.57971 48.7899 0.859335 48.7899 1.1867C48.7899 1.50725 48.6753 1.78346 48.446 2.01535C48.2168 2.24723 47.9403 2.36317 47.6167 2.36317C47.2998 2.36317 47.0267 2.24723 46.7975 2.01535C46.5682 1.78346 46.4536 1.50725 46.4536 1.1867C46.4536 0.859335 46.5682 0.57971 46.7975 0.347826C47.0267 0.115942 47.2998 0 47.6167 0ZM46.9087 4.58312H48.3348V15.7136H46.9087V4.58312Z" fill="black"/>
<path d="M62.2314 4.58312V15.7136H60.8357V13.8005C60.2423 14.5303 59.5748 15.0793 58.8331 15.4476C58.0982 15.8159 57.2924 16 56.4159 16C54.8583 16 53.5266 15.4305 52.4208 14.2916C51.3218 13.1458 50.7723 11.7545 50.7723 10.1176C50.7723 8.51492 51.3285 7.14407 52.4411 6.00512C53.5536 4.86616 54.892 4.29668 56.4563 4.29668C57.3598 4.29668 58.1757 4.49105 58.9039 4.8798C59.6389 5.26854 60.2828 5.85166 60.8357 6.62916V4.58312H62.2314ZM56.5676 5.67775C55.7787 5.67775 55.0505 5.87553 54.383 6.2711C53.7154 6.65985 53.1828 7.20887 52.785 7.91816C52.3939 8.62745 52.1983 9.37766 52.1983 10.1688C52.1983 10.9531 52.3972 11.7033 52.7951 12.4194C53.1929 13.1356 53.7256 13.6948 54.3931 14.0972C55.0673 14.4928 55.7888 14.6905 56.5575 14.6905C57.3329 14.6905 58.0678 14.4928 58.7623 14.0972C59.4568 13.7016 59.9895 13.1662 60.3603 12.491C60.7379 11.8159 60.9267 11.0554 60.9267 10.2097C60.9267 8.92072 60.5053 7.84314 59.6625 6.97698C58.8264 6.11083 57.7948 5.67775 56.5676 5.67775Z" fill="black"/>
<path d="M71.9813 6.13811L70.272 7.86701C69.5776 7.17136 68.9471 6.82353 68.3807 6.82353C68.0706 6.82353 67.8278 6.89173 67.6525 7.02813C67.4772 7.15772 67.3896 7.3214 67.3896 7.51918C67.3896 7.66922 67.4435 7.80904 67.5514 7.93862C67.666 8.06138 67.9425 8.23188 68.3807 8.45013L69.3921 8.96164C70.4575 9.49361 71.1891 10.0358 71.5869 10.5882C71.9847 11.1407 72.1836 11.7886 72.1836 12.532C72.1836 13.5209 71.8229 14.3461 71.1014 15.0077C70.3867 15.6692 69.4258 16 68.2189 16C66.6142 16 65.333 15.3657 64.3756 14.0972L66.0747 12.2251C66.3984 12.607 66.776 12.9173 67.2075 13.156C67.6458 13.3879 68.0335 13.5038 68.3706 13.5038C68.7347 13.5038 69.028 13.4152 69.2505 13.2379C69.473 13.0605 69.5843 12.8559 69.5843 12.624C69.5843 12.1944 69.1831 11.7749 68.3807 11.3657L67.4502 10.8951C65.6702 9.98806 64.7802 8.85252 64.7802 7.48849C64.7802 6.6087 65.1139 5.85848 65.7814 5.23785C66.4557 4.6104 67.3154 4.29668 68.3605 4.29668C69.0752 4.29668 69.7461 4.45695 70.3732 4.77749C71.007 5.09122 71.543 5.54476 71.9813 6.13811Z" fill="black"/>
<path d="M74.3783 0.286445H77.1192V5.70844C77.6586 5.23785 78.2014 4.88662 78.7476 4.65473C79.2937 4.41603 79.8466 4.29668 80.4063 4.29668C81.4986 4.29668 82.419 4.6786 83.1674 5.44246C83.808 6.10401 84.1282 7.07587 84.1282 8.35806V15.7136H81.4076V10.8338C81.4076 9.54476 81.3469 8.67178 81.2255 8.21483C81.1041 7.75789 80.8951 7.41688 80.5984 7.19182C80.3085 6.96675 79.9478 6.85422 79.5162 6.85422C78.9566 6.85422 78.4745 7.04177 78.0699 7.41688C77.6721 7.79199 77.3957 8.3035 77.2406 8.95141C77.1597 9.28559 77.1192 10.0494 77.1192 11.243V15.7136H74.3783V0.286445Z" fill="black"/>
<path d="M94.9401 4.58312H97.6911V15.7136H94.9401V14.5371C94.4007 15.0554 93.8579 15.4305 93.3117 15.6624C92.7723 15.8875 92.1857 16 91.5519 16C90.1292 16 88.8987 15.4442 87.8603 14.3325C86.8219 13.214 86.3027 11.8261 86.3027 10.1688C86.3027 8.45013 86.8051 7.04177 87.8097 5.94373C88.8144 4.8457 90.0348 4.29668 91.471 4.29668C92.1318 4.29668 92.7521 4.42285 93.332 4.67519C93.9118 4.92754 94.4479 5.30605 94.9401 5.81074V4.58312ZM92.0374 6.87468C91.1811 6.87468 90.4697 7.18159 89.9033 7.7954C89.3369 8.40239 89.0537 9.18329 89.0537 10.1381C89.0537 11.0997 89.3403 11.8909 89.9134 12.5115C90.4933 13.1321 91.2047 13.4425 92.0475 13.4425C92.9173 13.4425 93.6388 13.139 94.2119 12.532C94.785 11.9182 95.0716 11.1168 95.0716 10.1279C95.0716 9.15942 94.785 8.37511 94.2119 7.77494C93.6388 7.17477 92.9139 6.87468 92.0374 6.87468Z" fill="black"/>
<path d="M99.8353 4.58312H102.202V5.98465C102.458 5.43223 102.799 5.01279 103.223 4.72634C103.648 4.4399 104.113 4.29668 104.619 4.29668C104.977 4.29668 105.351 4.39216 105.742 4.58312L104.882 6.98721C104.559 6.82353 104.292 6.74169 104.083 6.74169C103.658 6.74169 103.298 7.00767 103.001 7.53964C102.711 8.07161 102.566 9.11509 102.566 10.6701L102.576 11.2123V15.7136H99.8353V4.58312Z" fill="black"/>
<path d="M107.138 0.286445H109.899V9.17647L113.965 4.58312H117.424L112.69 9.92327L118 15.7136H114.571L109.899 10.5882V15.7136H107.138V0.286445Z" fill="black"/>
</svg>
