<svg width="377" height="369" viewBox="0 0 377 369" fill="none" xmlns="http://www.w3.org/2000/svg">
<path d="M374.797 41.9997L373.826 42.238L374.797 41.9997ZM195.227 5.3256L195.369 6.31557L195.227 5.3256ZM104.296 368.865C104.774 369.142 105.386 368.979 105.663 368.502L110.176 360.715C110.453 360.237 110.291 359.626 109.813 359.349C109.335 359.072 108.723 359.234 108.446 359.712L104.434 366.633L97.5127 362.621C97.0349 362.344 96.4231 362.507 96.1461 362.985C95.8691 363.463 96.0319 364.074 96.5097 364.351L104.296 368.865ZM-0.367493 42.9297C35.4358 57.0771 83.857 72.0524 132.673 82.4184C181.47 92.7803 230.755 98.5571 268.249 94.2462L268.021 92.2593C230.85 96.533 181.818 90.8096 133.089 80.462C84.3783 70.1185 36.0642 55.175 0.367493 41.0697L-0.367493 42.9297ZM268.249 94.2462C305.633 89.9479 333.766 82.5565 351.916 73.4613C360.988 68.9149 367.636 63.9086 371.68 58.586C375.745 53.2356 377.188 47.5446 375.769 41.7614L373.826 42.238C375.077 47.3352 373.855 52.4179 370.088 57.3761C366.299 62.3622 359.947 67.1995 351.02 71.6732C333.17 80.6182 305.301 87.973 268.021 92.2593L268.249 94.2462ZM375.769 41.7614C373.417 32.1809 365.32 24.4703 353.654 18.4458C341.967 12.4101 326.525 7.97351 309.145 5.02199C274.378 -0.882281 231.63 -0.880041 195.086 4.33563L195.369 6.31557C231.732 1.12568 274.27 1.12805 308.81 6.99376C326.084 9.92722 341.303 14.3181 352.736 20.2228C364.192 26.1388 371.677 33.4816 373.826 42.238L375.769 41.7614ZM195.086 4.33563C161.995 9.05845 144.881 15.1282 134.707 23.8176C124.522 32.5168 121.416 43.7721 116.063 58.1511L117.937 58.8489C123.381 44.2275 126.314 33.6162 136.006 25.3384C145.709 17.0511 162.31 11.0338 195.369 6.31557L195.086 4.33563ZM116.063 58.1511C110.615 72.7825 100.306 123.018 94.9785 183.162C89.6495 243.321 89.2855 313.586 103.831 368.257L105.764 367.743C91.3093 313.414 91.6478 243.429 96.9707 183.338C102.295 123.232 112.587 73.2179 117.937 58.8489L116.063 58.1511Z" fill="#D7A781"/>
</svg>
